<?xml version="1.0" encoding="UTF-8" standalone="no"?>
<svg
   viewBox="0 0 230 250"
   version="1.1"
   id="svg11"
   sodipodi:docname="elixir-munich-logo-no-shield.svg"
   inkscape:version="1.4.2 (ebf0e940d0, 2025-05-08)"
   xmlns:inkscape="http://www.inkscape.org/namespaces/inkscape"
   xmlns:sodipodi="http://sodipodi.sourceforge.net/DTD/sodipodi-0.dtd"
   xmlns="http://www.w3.org/2000/svg"
   xmlns:svg="http://www.w3.org/2000/svg">
  <sodipodi:namedview
     id="namedview11"
     pagecolor="#ffffff"
     bordercolor="#000000"
     borderopacity="0.25"
     inkscape:showpageshadow="2"
     inkscape:pageopacity="0.0"
     inkscape:pagecheckerboard="0"
     inkscape:deskcolor="#d1d1d1"
     inkscape:zoom="4.64"
     inkscape:cx="115.08621"
     inkscape:cy="125"
     inkscape:window-width="2560"
     inkscape:window-height="1371"
     inkscape:window-x="0"
     inkscape:window-y="0"
     inkscape:window-maximized="1"
     inkscape:current-layer="svg11" />
  <defs
     id="defs3">
    <radialGradient
       id="dropGradient"
       cx="11.022725"
       cy="5.8029679"
       r="15.47262"
       gradientTransform="scale(0.80586268,1.2409062)"
       fx="11.022725"
       fy="5.8029679"
       gradientUnits="userSpaceOnUse">
      <stop
         offset="0%"
         style="stop-color:#4a3d7a;stop-opacity:0.9"
         id="stop1" />
      <stop
         offset="50%"
         style="stop-color:#2d2354;stop-opacity:0.8"
         id="stop2" />
      <stop
         offset="100%"
         style="stop-color:#3a2f5c;stop-opacity:0.8"
         id="stop3" />
    </radialGradient>
  </defs>
  <!-- Original Münchner Kindl paths -->
  <path
     d="m 188.98565,58.367142 8.93849,18.242217 -12.49467,6.775955 -8.84238,-18.674724 z"
     fill="#563272"
     style="fill:#563272;stroke-width:0.961128"
     id="path3" />
  <path
     d="m 171.20477,86.04764 h 7.49681 l 6.34344,-3.604232 -3.7484,-7.93892 6.63179,-4.555749 -0.86502,-2.162539 -8.36181,4.805642 m -130.521243,-4.709529 -7.592914,-7.18924 -2.518157,5.286206 10.111071,4.690307 m 10.187961,6.727898 -8.054256,-15.858618 -1.172577,6.343447 9.226833,18.165327 M 51.063722,69.80457 h -3.844514 c -1.57625,2.777661 -3.412005,5.488043 -4.228964,7.689027 l 8.073478,0.961128"
     id="path4"
     style="stroke-width:0.961128" />
  <path
     d="m 109.01977,41.470505 c 5.47843,2.595047 6.24733,3.642677 8.36181,6.429949 1.24947,2.498934 1.15336,4.805642 1.15336,14.801377 0,6.43956 -0.57668,12.600393 -0.48057,12.888732 l -6.53567,1.826144 c -0.57668,-0.192226 -1.73003,-3.162113 -2.78727,-4.411579 -5.76678,6.535672 -14.580323,8.342594 -22.34624,8.919271 -4.382746,0.576677 -17.031195,-2.01837 -22.105953,-4.228965 0,0 -0.259505,83.224106 -0.269116,121.486626 7.016237,0 12.158274,-2.21059 16.281515,-8.74626 1.028407,-1.24947 2.24904,-3.65229 2.24904,-14.70527 0,-11.53354 0.0865,-55.16877 0.0865,-55.16877 0,-2.69116 1.835755,-6.24733 4.71914,-8.93849 2.220207,-2.11448 3.911793,-2.9795 6.881679,-3.7484 v 90.53829 l 46.220675,0.19223 v -92.0761 c 2.3067,0.7689 5.57454,3.07561 7.01623,5.19009 1.4417,2.01837 3.17173,4.22897 4.42119,8.74627 1.24947,5.76677 0.67279,54.11153 0.67279,55.16877 0,7.68903 -0.67279,13.64802 2.59505,18.35755 2.88339,3.94063 10.66852,5.959 14.9936,6.34345 V 78.944901 c -8.93849,2.99872 -19.5109,4.142463 -27.68049,2.508545 -7.01624,-1.249467 -11.82188,-6.535673 -12.30245,-7.592914 -3.65229,-7.400689 13.35969,-5.564934 20.66426,-5.564934 -0.96113,-5.478431 -1.82614,-6.920124 -3.84451,-11.052976 -4.03674,-6.920124 -7.59292,-9.995735 -14.12859,-12.87912 -5.76677,-2.210595 -18.06921,-2.883385 -23.83598,-2.883385 z"
     style="fill:#000000;stroke-width:0.961128"
     id="path5" />
  <path
     d="m 100.9559,201.95972 c -1.23986,0.38446 -1.835759,4.13286 -3.277452,5.959 -1.864589,2.40282 -10.245628,7.4968 -10.245628,17.58865 5.564933,-3.55618 7.958143,-5.28621 13.72491,-9.41906 4.69031,-3.26783 6.72791,-3.7484 7.1508,-4.32508 v -9.80351 z m 23.73026,0 c 0.0961,6.24734 0,8.74627 0.57668,9.80351 1.05724,1.4417 3.26783,1.63392 8.2657,5.38232 4.61342,3.65229 7.11235,5.67066 11.82188,8.36182 -0.86502,-11.2452 -3.46006,-10.4763 -7.59291,-15.18583 -2.2106,-2.01837 -5.28621,-8.16959 -5.47844,-8.36182 z"
     fill="#563272"
     style="fill:#563272;stroke:none;stroke-width:0.961128"
     id="path6" />
  <!-- Elixir drop positioned on center of the coat -->
  <g
     transform="matrix(7.2084628,0,0,7.2084628,30.495575,28.836473)"
     opacity="1"
     id="g7">
    <path
       d="m 19.793,16.575 c 0,3.752 -2.927,7.426 -7.743,7.426 -5.249,0 -7.843,-3.71 -7.843,-8.29 0,-5.21 3.892,-12.952 8,-15.647 a 0.397,0.397 0 0 1 0.61,0.371 9.716,9.716 0 0 0 1.694,6.518 c 0.522,0.795 1.092,1.478 1.763,2.352 0.94,1.227 1.637,1.906 2.644,3.842 l 0.015,0.028 a 7.107,7.107 0 0 1 0.86,3.4 z"
       fill="url(#dropGradient)"
       style="fill:url(#dropGradient)"
       id="path7" />
  </g>
  <!-- Yellow and peach elements brought to front -->
  <path
     d="m 102.79165,42.124073 c -0.61512,1.239855 3.28707,0.365229 3.76763,1.72042 0.48056,1.364802 4.31547,26.815481 4.31547,26.815481 l -2.20099,2.383599 v 6.151221 h 10.58203 v -35.63864 c -4.90176,-0.365229 -8.84239,-3.354338 -16.41608,-1.432081 z"
     fill="#fcdd09"
     style="fill:#ffdd00;stroke-width:0.961128"
     id="path8" />
  <path
     d="m 103.20494,42.431634 c -0.24029,0.01922 -0.49018,0.05767 -0.72085,0.115335 -7.083516,3.123667 -3.498507,9.976513 -5.651435,20.66426 l 2.287486,0.480565 c 0,2.277874 0.365229,3.719566 0.692012,6.487616 6.372287,0.5959 9.976517,-0.240282 10.457077,0 1.63392,1.441693 4.13286,6.612563 4.13286,6.612563 l 0.48056,-0.240282 c 0,0 0.86502,-23.43231 0.19223,-25.354566 -0.57668,-2.998721 -3.94063,-5.766771 -6.45879,-7.323799 -1.69158,-0.845793 -3.70995,-1.595473 -5.41115,-1.441692 z M 40.577811,60.693073 39.501348,62.61533 c 3.844513,2.99872 6.362669,3.959849 7.804362,5.286206 l -0.480564,1.20141 C 44.787554,68.141818 39.981912,65.008539 38.895837,64.41264 l -0.836182,1.566639 c 3.729178,2.633492 7.208463,4.450024 7.929309,5.045924 2.047204,1.086075 3.96946,1.076464 5.045924,2.162539 v 1.557028 c -2.76805,-0.5959 -4.56536,-2.287486 -5.76677,-1.557028 l -0.845793,1.20141 c 2.047203,0 5.170871,2.037593 5.170871,2.037593 l -0.480565,1.441692 c -2.402821,-0.836182 -2.62388,-1.566639 -5.372707,-2.162539 l -0.961129,2.162539 22.105953,11.898769 -0.06728,-11.802656 c -0.711235,-0.22106 -1.403247,-0.605511 -2.008758,-0.932295 -3.488896,-2.162538 -1.56664,-5.76677 -2.047204,-6.96818 0,-0.240282 -7.554469,-6.497228 -10.447465,-8.53482 -2.402821,3.363949 2.758438,5.651435 3.719567,7.333409 1.681974,2.518157 -0.115336,6.487617 4.209742,9.13072 l -0.124947,1.922257 C 51.630787,78.108719 53.793326,71.97672 52.591915,69.698846 51.390505,68.257153 50.429376,67.776589 48.747402,66.575179 45.604512,64.41264 43.586142,62.499994 40.57781,60.693073 Z m 144.649829,5.132426 c -0.19223,-0.0096 -0.57668,0.07689 -0.96113,0.269115 l -5.86288,2.950665 c -2.40283,1.441692 -4.03674,2.306708 -4.03674,2.306708 -2.30671,1.249467 1.82614,5.276594 -1.34558,6.458782 -1.4417,0.557455 -2.78728,1.153354 -3.7484,1.412859 v 12.686895 l 13.93636,-8.448319 -2.2106,-4.603805 c -1.05724,3.267837 -2.78727,4.325078 -5.86288,4.901755 l -0.48057,-1.922257 c 2.49894,-0.768902 4.13286,-1.335968 4.80565,-4.027128 0.38445,-2.018369 -0.96113,-2.979498 -0.0961,-4.805641 0.0961,-0.480565 3.55618,-2.796884 5.86289,-4.238577 0.7689,-0.480564 1.5378,-0.855404 1.82614,-1.04763 -0.67279,-1.028407 -1.05724,-1.864589 -1.82614,-1.893422 z"
     fill="#f2a772"
     style="fill:#fbc2a6;stroke-width:0.961128"
     id="path9" />
  <path
     d="m 119.11162,97.215951 c 8.28973,-0.240282 14.41692,-3.243808 17.89621,-6.848039 2.04239,-1.922257 3.84451,-3.724373 4.56536,-6.487617 l -3.36395,-1.321551 c -0.60071,2.162538 -1.68198,3.243808 -3.36395,4.805641 -3.24381,3.36395 -9.97652,6.247335 -17.78088,6.247335 -6.48761,0 -12.25438,-2.162539 -15.85862,-4.56536 -2.763245,-1.802116 -4.56536,-3.48409 -5.526489,-6.487616 l -3.315893,1.557028 c 0.961129,3.48409 3.604232,6.007052 6.84804,8.04945 3.844512,2.643103 8.890442,4.805642 15.493392,5.045924 V 131.20626 H 96.251173 v 4.08479 H 114.7529 v 61.14699 h 4.32508 v -61.12776 h 19.3379 v -4.0848 H 119.19331 V 97.124644 Z"
     fill="#fcdd09"
     style="fill:#ffdd00;stroke-width:0.961128"
     id="path10" />
  <!-- Black facial features (eyes/eyebrows) brought to front -->
  <path
     d="m 111.42259,50.48589 c 0.0961,-2.162539 -0.38445,-2.402821 -2.30671,-4.325078 -0.72085,2.287485 -0.38445,3.123667 2.30671,4.325078 z m -2.8065,0.115335 c 0.11534,-2.152928 0.30757,-2.748827 -1.92225,-4.440413 -0.5959,2.287485 -0.5959,2.99872 1.92225,4.440413 z m -2.76805,-0.230671 c 0.24029,-2.17215 0.72085,-2.537379 -1.92225,-4.450024 -0.59591,2.277874 -0.48057,3.363949 1.92225,4.450024 z m -3.05639,0.240282 c 0.73046,-1.931868 1.21103,-3.248614 -1.79731,-4.565359 -0.35562,2.643103 0.24028,2.883385 1.79731,4.565359 z m -0.19222,5.516877 c 3.24861,1.681975 3.47929,1.681975 6.61256,-0.355617 -0.96112,-1.806922 -2.65271,-3.008332 -4.80564,-2.527768 -1.21102,0.5959 -1.69159,1.316746 -1.80692,2.633492 z"
     fill="#231f20"
     id="path11"
     style="stroke-width:0.961128" />
</svg>
